<svg xmlns="http://www.w3.org/2000/svg" xmlns:xlink="http://www.w3.org/1999/xlink" fill="#6B7280" class="c3wll c7n6y c1j9y cgmrc cm474 " viewBox="0 0 16 16">
    <path d="M14.14 9.585a2.5 2.5 0 00-3.522 3.194c-.845.63-1.87.97-2.924.971a4.979 4.979 0 01-1.113-.135 4.436 4.436 0 01-1.343 1.682 6.91 6.91 0 006.9-1.165 2.5 2.5 0 002-4.547h.002zM10.125 2.188a2.5 2.5 0 10-.4 2.014 5.027 5.027 0 012.723 3.078c.148-.018.297-.028.446-.03a4.5 4.5 0 011.7.334 7.023 7.023 0 00-4.469-5.396zM4.663 10.5a2.49 2.49 0 00-1.932-1.234 4.624 4.624 0 01-.037-.516 4.97 4.97 0 011.348-3.391 4.456 4.456 0 01-.788-2.016A6.989 6.989 0 00.694 8.75c.004.391.04.781.11 1.166a2.5 2.5 0 103.86.584z"></path>
</svg>